<svg width="40" height="40" viewBox="0 0 40 40" fill="none" xmlns="http://www.w3.org/2000/svg">
<circle cx="20" cy="20" r="20" fill="#414141"/>
<path d="M18.5 31C18.5 31.8284 19.1716 32.5 20 32.5C20.8284 32.5 21.5 31.8284 21.5 31H18.5ZM21.0607 7.93934C20.4749 7.35355 19.5251 7.35355 18.9393 7.93934L9.3934 17.4853C8.80761 18.0711 8.80761 19.0208 9.3934 19.6066C9.97918 20.1924 10.9289 20.1924 11.5147 19.6066L20 11.1213L28.4853 19.6066C29.0711 20.1924 30.0208 20.1924 30.6066 19.6066C31.1924 19.0208 31.1924 18.0711 30.6066 17.4853L21.0607 7.93934ZM21.5 31L21.5 9H18.5L18.5 31H21.5Z" fill="white"/>
</svg>
